<?xml version="1.0" encoding="UTF-8" standalone="no"?>
<!-- Created with Inkscape (http://www.inkscape.org/) -->

<svg
   xmlns:dc="http://purl.org/dc/elements/1.1/"
   xmlns:cc="http://creativecommons.org/ns#"
   xmlns:rdf="http://www.w3.org/1999/02/22-rdf-syntax-ns#"
   xmlns:svg="http://www.w3.org/2000/svg"
   xmlns="http://www.w3.org/2000/svg"
   xmlns:sodipodi="http://sodipodi.sourceforge.net/DTD/sodipodi-0.dtd"
   xmlns:inkscape="http://www.inkscape.org/namespaces/inkscape"
   width="500"
   height="500"
   id="svg2"
   version="1.1"
   inkscape:version="0.48.4 r9939"
   sodipodi:docname="oshmi-o-logo.svg"
   inkscape:export-filename="/home/ricardolo/oshmi/icons/oshmi-o-logo32.png"
   inkscape:export-xdpi="5.7600002"
   inkscape:export-ydpi="5.7600002">
  <defs
     id="defs4" />
  <sodipodi:namedview
     id="base"
     pagecolor="#ffffff"
     bordercolor="#666666"
     borderopacity="1.0"
     inkscape:pageopacity="0.0"
     inkscape:pageshadow="2"
     inkscape:zoom="0.71134942"
     inkscape:cx="151.33263"
     inkscape:cy="279.74397"
     inkscape:document-units="px"
     inkscape:current-layer="layer1"
     showgrid="false"
     inkscape:window-width="898"
     inkscape:window-height="656"
     inkscape:window-x="994"
     inkscape:window-y="355"
     inkscape:window-maximized="0" />
  <metadata
     id="metadata7">
    <rdf:RDF>
      <cc:Work
         rdf:about="">
        <dc:format>image/svg+xml</dc:format>
        <dc:type
           rdf:resource="http://purl.org/dc/dcmitype/StillImage" />
        <dc:title></dc:title>
      </cc:Work>
    </rdf:RDF>
  </metadata>
  <g
     inkscape:label="Layer 1"
     inkscape:groupmode="layer"
     id="layer1"
     transform="translate(0,-552.36218)">
    <path
       style="fill:#ececec"
       d="M 30.925347,1042.4729 C 45.096238,1006.4976 52.162904,969.45462 64.145851,933.12664 80.222965,876.9114 97.356399,820.78306 111.64302,764.38811 116.22438,739.49467 96.210304,716.47338 87.952053,692.67355 68.126553,647.82843 47.674892,603.08819 28.194719,558.18558 c 17.448277,-6.4776 45.012363,13.93623 43.314593,-0.29483 15.789565,-1.09608 31.720718,-0.50383 47.577818,-0.69188 44.92048,40.39804 88.82544,81.27521 134.23818,121.42882 45.88558,-40.05626 89.94701,-80.93109 134.84368,-121.42882 16.64781,0.6712 35.03793,-1.54635 50.40003,1.88808 -12.62251,15.20919 46.21178,-15.37168 37.60581,5.57552 -26.10744,63.38048 -57.3095,125.86096 -84.73941,189.01081 23.30817,81.79849 47.52068,163.48867 71.2678,245.23182 -0.79205,14.7832 18.17974,36.0146 8.2282,46.5265 -21.62576,1.2411 -25.79211,-6.9164 -42.58404,-0.031 -6.24656,-1.3875 -38.2478,3.3173 -29.97479,-2.1907 3.19226,-3.6292 26.01834,-12.3906 10.34678,-11.0888 -42.39709,0 -84.79411,0 -127.19121,0 13.39425,19.3192 -29.74611,12.0361 -47.48117,13.0676 -26.32609,2.7811 8.5876,-17.8801 -21.7641,-12.5107 -40.67527,-0.8916 -81.38222,-0.4488 -122.07374,-0.5569 5.317884,4.1848 19.3436,10.6458 19.54069,13.4921 -16.693086,0.047 -35.807887,0.7438 -49.500516,-4.6548 0.764951,6.1492 -30.508327,6.6943 -29.323977,1.5149 z m 56.32481,-0.5775 c -9.333666,-8.5623 -25.796747,-8.5405 0,0 z M 333.75345,969.4378 c -26.08957,-15.49742 -52.17912,-30.99482 -78.26867,-46.49226 -52.48874,30.99484 -104.97757,61.98969 -157.466361,92.98446 104.667861,0 209.335751,0 314.003641,0 -26.08954,-15.4974 -52.17904,-30.99477 -78.26861,-46.4922 z m -217.80422,-6.94789 c -42.524637,-7.67393 -34.696878,24.26175 -44.648183,40.51699 15.396283,-5.01988 29.746973,-15.79695 43.889873,-23.80895 8.74627,-5.29569 17.49258,-10.59136 26.23889,-15.88707 -8.49358,-0.27363 -16.98705,-0.54732 -25.48058,-0.82097 z m 298.37713,41.62769 c -9.33368,-8.56241 -25.79669,-8.54051 0,0 z m 18.17292,-11.2112 c -5.45644,-9.54589 -4.57201,-23.11179 -11.29687,-30.9447 -19.63476,0 -39.26949,0 -58.90426,0 24.29474,14.15901 47.3248,29.2653 73.13201,42.332 0.10545,-3.8824 -1.69196,-7.62837 -2.93088,-11.3873 z m -40.88654,-2.28091 c -9.33368,-8.56238 -25.7967,-8.54051 0,0 z M 136.08447,954.59912 c -10.13825,-1.39277 -56.281398,0.48711 -23.53156,1.03689 1.98765,-0.14249 36.30493,0.47016 23.53156,-1.03689 z m 268.02075,0 c -10.13821,-1.39277 -56.28138,0.48711 -23.53153,1.03689 1.98767,-0.14249 36.30491,0.47016 23.53153,-1.03689 z M 121.84677,937.67595 c -14.66412,-16.18985 -43.235338,-8.14408 -27.217113,8.05606 9.074563,1.41376 48.397023,5.41005 42.864853,0.51165 -5.2159,-2.8559 -10.43184,-5.71182 -15.64774,-8.56771 z m 294.0365,8.72858 c -1.59453,-4.67969 2.59571,-29.87887 -12.20875,-18.29865 -12.26638,6.38583 -45.4964,19.57652 -8.51857,19.16354 6.67931,0.2095 14.78265,1.86276 20.72732,-0.86489 z M 199.23565,929.43241 c 8.09346,-4.54682 16.18689,-9.09361 24.28033,-13.64038 -34.45506,0.40927 -68.91002,0.81856 -103.36504,1.22786 17.59782,8.71697 34.39926,18.13709 52.97206,26.02889 9.3853,-3.95901 17.53196,-9.01619 26.11265,-13.61637 z m 161.57822,0.57903 c 8.37578,-4.35379 16.75161,-8.70757 25.12739,-13.06133 -34.05458,-0.1898 -68.10916,-0.37976 -102.16375,-0.56984 16.28828,8.94611 31.33844,18.93204 49.20866,26.63435 10.12472,-3.49685 18.74896,-8.56261 27.8277,-13.00318 z m -241.76466,-4.14798 c -9.33366,-8.56244 -25.796719,-8.54055 0,0 z m 84.04043,-31.36221 c -14.8225,-11.11673 -36.01308,1.27206 -52.80975,4.52828 2.12877,1.18091 20.68759,0.25656 28.85609,0.66346 5.22757,-1.20888 39.72596,3.50873 23.95366,-5.19174 z m 138.5531,0 c -9.61724,-9.18305 -49.63926,-3.39696 -38.59965,5.07131 18.15101,0.50078 36.33416,0.0544 54.49917,0.0992 -5.29982,-1.72359 -10.59999,-3.44703 -15.89952,-5.17073 z m -213.50806,-6.37357 c 15.7571,-3.49765 17.76936,-5.02584 -0.25893,-3.68259 -17.1503,-5.42491 -37.278771,19.95497 -12.6634,7.47242 4.232,-1.36182 8.54005,-2.63066 12.92223,-3.78983 z m 185.11605,-24.35516 c 15.28854,-12.75736 54.78536,-25.04132 50.38191,-39.46828 -16.20039,-9.68973 -34.21256,-18.05969 -51.50503,-26.94604 -39.03862,0 -78.07725,0 -117.11586,0 -19.50793,10.17363 -39.01589,20.3472 -58.52385,30.52081 39.4911,23.1616 77.70177,47.23919 118.77752,69.29253 20.2661,-10.45453 38.84293,-22.14975 57.98531,-33.39902 z m 87.44747,25.33189 c -1.33313,-7.39981 -49.45886,-6.46658 -24.22522,-2.19246 6.36766,0.88647 38.03289,13.72116 24.22522,2.19246 z M 143.32831,858.74718 c -13.13436,-9.92684 -31.83194,-15.86214 -29.62964,2.23621 -6.47385,9.50284 2.72243,10.45446 15.90251,9.23207 11.55742,0 23.11487,0 34.67229,0 -6.9817,-3.82275 -13.96343,-7.64551 -20.94516,-11.46828 z m 249.97731,0 c 0.50789,-23.74777 -25.76066,-1.75168 -39.66839,5.76369 -16.75283,6.93669 -1.78258,5.94361 10.17101,5.70459 10.81818,0 21.63634,0 32.45461,0 -0.98571,-3.82275 -1.97151,-7.64551 -2.95723,-11.46828 z M 139.49149,802.75503 c 15.54808,-16.58769 -26.13935,10.60487 -3.28269,2.09545 l 3.28269,-2.09545 z m 235.8426,-0.96302 c -32.70034,-19.15984 6.67504,18.13898 0,0 z M 159.5552,780.46428 c -8.09223,-5.30728 -30.5033,-15.14279 -19.79403,-0.51637 5.89237,1.77814 13.6201,1.58952 19.79403,0.51637 z m 122.63087,0.0288 c -11.80046,-1.24665 -23.90459,-20.07155 -34.77996,-12.365 -5.20643,4.03597 -19.25255,10.35071 -19.2336,13.03962 17.99761,-0.17777 36.08809,0.48777 54.01356,-0.67462 z m 86.71303,-4.72219 c 0.86666,-14.64143 -32.60086,14.15232 -2.35938,4.09608 l 1.78055,-1.68039 0.57883,-2.41569 z M 214.44644,763.44426 c -17.13123,-1.99694 -34.84515,-0.84636 -52.24129,-1.13776 9.05503,4.30351 18.11014,8.60701 27.16523,12.91056 8.45557,-3.81992 18.00424,-6.89007 25.07606,-11.7728 z m 122.44774,3.02948 c 2.25461,-8.43249 -29.74018,-2.53343 -41.57053,-4.19491 8.53904,7.65274 28.34346,18.26702 41.57053,4.19491 z m -9.04179,-23.94207 c -25.57833,-12.68225 -49.2155,-27.97244 -77.76531,-37.694 -24.19112,14.74122 -51.1147,27.58694 -76.83623,41.25062 50.42899,-0.36983 100.97669,0.95599 151.30773,-1.13135 1.24628,0.53704 6.90032,-1.34439 3.29381,-2.42527 z M 193.35981,711.92413 c 4.08782,-3.42729 24.98057,-10.71602 18.47387,-11.70895 -29.4032,0.48176 -59.33074,-1.37408 -88.27989,2.02384 4.03041,12.85063 10.24574,25.38539 15.5052,38.05245 18.2003,-9.38 36.32277,-18.81947 54.30082,-28.36734 z m 188.81542,-5.63752 c -9.16511,-11.59328 -40.53181,-4.13166 -59.71518,-6.07143 -8.75441,0.50033 -26.54253,-0.98215 -29.89784,0.70328 24.29832,11.62716 47.51342,24.957 72.32844,35.48315 10.06361,-8.22388 14.313,-19.91646 17.28458,-30.115 z M 200.81828,684.83295 c -34.1951,-6.89487 -64.06838,-21.17728 -98.28908,-27.15936 8.00796,7.02083 3.99281,23.84953 17.61867,26.26625 27.8099,0.56341 55.62188,1.61403 83.42231,1.89725 l -2.7519,-1.00414 0,0 z m 188.09096,-1.84413 c 9.61606,-7.73255 26.7922,-34.79239 -3.93498,-20.61063 -26.1416,7.56222 -51.8018,15.75658 -77.67248,23.67353 27.20546,-0.96265 54.47512,-1.45249 81.60746,-3.0629 z m 11.14429,-43.63479 c -21.78106,-6.65237 -51.31345,-24.30884 -64.51385,-1.55857 -13.43497,11.34905 -26.33666,22.94246 -38.71517,34.75521 34.42814,-11.04099 69.15385,-21.73057 103.22902,-33.19664 z m -218.22442,7.24349 c -11.39072,-19.72103 -41.63782,-23.94945 -65.78311,-10.2498 -18.931096,3.29766 2.07811,6.2243 9.75863,9.27473 26.11912,7.98705 51.64841,16.88166 78.73811,23.4944 -5.98773,-8.03538 -14.93831,-15.13104 -22.71363,-22.51933 z m -63.72158,-28.19009 c 31.44875,-9.21908 -26.393197,-16.30263 -39.817158,-22.27022 -13.684845,-2.56653 10.271616,18.57577 8.833872,25.41916 6.359518,8.77654 22.394016,-1.35009 30.983286,-3.14894 z m 310.77053,-12.69619 c 3.45523,-6.64604 11.05905,-16.33618 -5.01112,-8.65506 -14.24662,5.54727 -38.72555,9.23996 -44.1934,17.4897 17.06479,9.32017 46.45977,16.21421 47.17512,-4.84534 l 2.0294,-3.9893 z m -5.50373,-27.68413 c -13.84304,-15.9403 -54.86646,23.83068 -18.17092,7.95573 6.23759,-2.29682 13.87396,-4.17514 18.17092,-7.95573 z m -308.45997,6.60878 c -4.29696,-16.00092 -52.789953,-8.73467 -17.443075,0.2343 4.783035,1.04763 26.812325,9.21309 17.443075,-0.2343 z"
       id="path3073"
       inkscape:connector-curvature="0" />
    <g
       id="g3010"
       transform="matrix(2.157617,0,0,2.157617,49.690557,-1432.9153)"
       inkscape:export-xdpi="5.9000001"
       inkscape:export-ydpi="5.9000001">
      <g
         transform="scale(0.90212631,1.1084922)"
         style="font-size:72.58596039px;font-style:normal;font-weight:normal;line-height:125%;letter-spacing:0px;word-spacing:0px;fill:#000000;fill-opacity:1;stroke:none;font-family:Bitstream Vera Sans"
         id="text2988">
        <path
           d="m 174.21683,936.17255 c 0,-58.79455 -28.68263,-99.03625 -68.78957,-99.03625 -45.940682,0 -70.734142,43.90003 -70.734142,99.03625 0,53.04576 24.307314,98.51365 69.761852,98.51365 45.45454,0 69.76186,-45.46789 69.76186,-98.51365 m -19.93196,-0.26131 c 0,45.7291 -19.932,76.04106 -49.8299,76.04106 -29.897902,0 -49.829892,-30.31196 -49.829892,-75.77975 0,-46.51302 19.688918,-76.30234 50.559112,-76.30234 29.16868,0 49.10068,30.83455 49.10068,76.04103"
           style="font-size:261.30938721px;font-variant:normal;font-stretch:condensed;text-align:start;line-height:125%;writing-mode:lr-tb;text-anchor:start;font-family:TeX Gyre Heros Cn;-inkscape-font-specification:TeX Gyre Heros Cn Condensed"
           id="path3016"
           inkscape:connector-curvature="0" />
      </g>
      <path
         sodipodi:nodetypes="ccccccccccccc"
         inkscape:connector-curvature="0"
         id="path3013-7"
         style="font-size:188.01930237px;font-style:italic;font-variant:normal;font-weight:bold;font-stretch:normal;text-align:start;line-height:125%;letter-spacing:0px;word-spacing:0px;writing-mode:lr-tb;text-anchor:start;fill:#d40000;fill-opacity:1;stroke:none;font-family:VL Gothic;-inkscape-font-specification:VL Gothic Bold Italic"
         d="m 92.855454,1018.5214 44.066596,-50.48896 38.1157,-44.7227 -45.70762,31.81578 -49.932675,37.13336 -69.491127,52.28852 92.348132,0 -24.923682,31.2523 -65.578689,75.8763 49.751344,-37.774 42.839337,-36.6362 27.8062,-23.3504 41.57252,-35.394" />
    </g>
  </g>
</svg>
