<?xml version="1.0" encoding="UTF-8" standalone="no"?>
<!-- Created with Inkscape (http://www.inkscape.org/) -->

<svg
   xmlns:dc="http://purl.org/dc/elements/1.1/"
   xmlns:cc="http://creativecommons.org/ns#"
   xmlns:rdf="http://www.w3.org/1999/02/22-rdf-syntax-ns#"
   xmlns:svg="http://www.w3.org/2000/svg"
   xmlns="http://www.w3.org/2000/svg"
   xmlns:sodipodi="http://sodipodi.sourceforge.net/DTD/sodipodi-0.dtd"
   xmlns:inkscape="http://www.inkscape.org/namespaces/inkscape"
   width="500"
   height="500"
   id="svg2"
   version="1.1"
   inkscape:version="0.48.4 r9939"
   sodipodi:docname="oshmi-logo.svg"
   inkscape:export-filename="/home/ricardolo/oshmi/icons/oshmi-logo16.png"
   inkscape:export-xdpi="2.9440458"
   inkscape:export-ydpi="2.9440458">
  <defs
     id="defs4" />
  <sodipodi:namedview
     id="base"
     pagecolor="#ffffff"
     bordercolor="#666666"
     borderopacity="1.0"
     inkscape:pageopacity="0.0"
     inkscape:pageshadow="2"
     inkscape:zoom="0.71134942"
     inkscape:cx="151.33263"
     inkscape:cy="279.74397"
     inkscape:document-units="px"
     inkscape:current-layer="layer1"
     showgrid="false"
     inkscape:window-width="898"
     inkscape:window-height="656"
     inkscape:window-x="994"
     inkscape:window-y="355"
     inkscape:window-maximized="0" />
  <metadata
     id="metadata7">
    <rdf:RDF>
      <cc:Work
         rdf:about="">
        <dc:format>image/svg+xml</dc:format>
        <dc:type
           rdf:resource="http://purl.org/dc/dcmitype/StillImage" />
        <dc:title></dc:title>
      </cc:Work>
    </rdf:RDF>
  </metadata>
  <g
     inkscape:label="Layer 1"
     inkscape:groupmode="layer"
     id="layer1"
     transform="translate(0,-552.36218)">
    <path
       style="fill:#b3b3b3"
       d="m 104.73889,1042.4729 c 10.57585,-35.9753 15.84976,-73.01828 24.79273,-109.34626 11.99848,-56.21524 24.7853,-112.34358 35.44752,-168.73853 3.4191,-24.89344 -11.51756,-47.91473 -17.68076,-71.71456 -14.79593,-44.84512 -30.05917,-89.58536 -44.59738,-134.48797 13.02179,-6.4776 33.59309,13.93623 32.32603,-0.29483 11.78388,-1.09608 23.67343,-0.50383 35.50771,-0.69188 33.52452,40.39804 66.29114,81.27521 100.18303,121.42882 34.24478,-40.05626 67.12818,-80.93109 100.63493,-121.42882 12.4244,0.6712 26.14909,-1.54635 37.61395,1.88808 -9.42028,15.20919 34.48823,-15.37168 28.06552,5.57552 -19.4842,63.38048 -42.77054,125.86096 -63.24171,189.01081 17.39508,81.79849 35.46507,163.48867 53.18774,245.23182 -0.59112,14.7832 13.56768,36.0146 6.14077,46.5265 -16.13948,1.2411 -19.24886,-6.9164 -31.78081,-0.031 -4.66186,-1.3875 -28.54464,3.3173 -22.37043,-2.1907 2.38241,-3.6292 19.4177,-12.3906 7.72189,-11.0888 -31.6413,0 -63.28253,0 -94.92383,0 9.99623,19.3192 -22.19976,12.0361 -35.43558,13.0676 -19.64737,2.7811 6.409,-17.8801 -16.24272,-12.5107 -30.35628,-0.8916 -60.73621,-0.4488 -91.10462,-0.5569 3.96878,4.1848 14.43629,10.6458 14.58337,13.4921 -12.45818,0.047 -26.72371,0.7438 -36.94263,-4.6548 0.57089,6.1492 -22.76861,6.6943 -21.88472,1.5149 z m 42.03566,-0.5775 c -6.96579,-8.5623 -19.25232,-8.5405 0,0 z m 183.9674,-72.4576 c -19.47086,-15.49742 -38.9417,-30.99482 -58.41254,-46.49226 -39.17277,30.99484 -78.34561,61.98969 -117.51842,92.98446 78.11447,0 156.22896,0 234.34345,0 -19.47084,-15.4974 -38.94164,-30.99477 -58.41249,-46.4922 z M 168.1929,962.48991 c -31.73648,-7.67393 -25.89456,24.26175 -33.3213,40.51699 11.49037,-5.01988 22.20041,-15.79695 32.75536,-23.80895 6.52742,-5.29569 13.05486,-10.59136 19.5823,-15.88707 -6.33883,-0.27363 -12.67757,-0.54732 -19.01636,-0.82097 z m 222.68126,41.62769 c -6.96581,-8.56241 -19.25228,-8.54051 0,0 z m 13.5626,-11.2112 c -4.07219,-9.54589 -3.41214,-23.11179 -8.43095,-30.9447 -14.65358,0 -29.30714,0 -43.96073,0 18.13136,14.15901 35.31889,29.2653 54.57901,42.332 0.0787,-3.8824 -1.26272,-7.62837 -2.18733,-11.3873 z m -30.51396,-2.28091 c -6.9658,-8.56238 -19.25228,-8.54051 0,0 z M 183.21999,954.59912 c -7.56625,-1.39277 -42.00326,0.48711 -17.56179,1.03689 1.4834,-0.14249 27.09466,0.47016 17.56179,-1.03689 z m 200.02605,0 c -7.56623,-1.39277 -42.00325,0.48711 -17.56177,1.03689 1.48341,-0.14249 27.09465,0.47016 17.56177,-1.03689 z M 172.59428,937.67595 c -10.94395,-16.18985 -32.26688,-8.14408 -20.31235,8.05606 6.77242,1.41376 36.11909,5.41005 31.99039,0.51165 -3.89267,-2.8559 -7.78537,-5.71182 -11.67804,-8.56771 z m 219.44181,8.72858 c -1.19001,-4.67969 1.9372,-29.87887 -9.11149,-18.29865 -9.1545,6.38583 -33.95433,19.57652 -6.35747,19.16354 4.98482,0.2095 11.03241,1.86276 15.46896,-0.86489 z M 230.35023,929.43241 c 6.04021,-4.54682 12.0804,-9.09361 18.1206,-13.64038 -25.71409,0.40927 -51.4281,0.81856 -77.14216,1.22786 13.13339,8.71697 25.67244,18.13709 39.53347,26.02889 7.00433,-3.95901 13.08425,-9.01619 19.48809,-13.61637 z m 120.58713,0.57903 c 6.25091,-4.35379 12.50186,-8.70757 18.75277,-13.06133 -25.41521,-0.1898 -50.83041,-0.37976 -76.24563,-0.56984 12.15607,8.94611 23.38813,18.93204 36.72482,26.63435 7.55616,-3.49685 13.9925,-8.56261 20.76804,-13.00318 z m -180.43092,-4.14798 c -6.96579,-8.56244 -19.2523,-8.54055 0,0 z m 62.72005,-31.36221 c -11.06215,-11.11673 -26.87685,1.27206 -39.41234,4.52828 1.58872,1.18091 15.43931,0.25656 21.53553,0.66346 3.90138,-1.20888 29.6478,3.50873 17.87681,-5.19174 z m 103.4033,0 c -7.17743,-9.18305 -37.04619,-3.39696 -28.80724,5.07131 13.54625,0.50078 27.11648,0.0544 40.67318,0.0992 -3.9553,-1.72359 -7.91086,-3.44703 -11.86594,-5.17073 z M 177.287,888.12768 c 11.75965,-3.49765 13.26142,-5.02584 -0.19325,-3.68259 -12.7994,-5.42491 -27.82144,19.95497 -9.45079,7.47242 3.15837,-1.36182 6.37351,-2.63066 9.64397,-3.78983 z m 138.1536,-24.35516 c 11.40996,-12.75736 40.88676,-25.04132 37.60042,-39.46828 -12.09048,-9.68973 -25.5331,-18.05969 -38.43861,-26.94604 -29.13484,0 -58.26968,0 -87.40451,0 -14.55893,10.17363 -29.11788,20.3472 -43.67683,30.52081 29.47253,23.1616 57.98946,47.23919 88.64462,69.29253 15.12476,-10.45453 28.98879,-22.14975 43.27491,-33.39902 z m 65.26275,25.33189 c -0.99493,-7.39981 -36.91154,-6.46658 -18.07947,-2.19246 4.75223,0.88647 28.38425,13.72116 18.07947,2.19246 z M 188.62613,858.74718 c -9.80228,-9.92684 -23.75644,-15.86214 -22.11284,2.23621 -4.83149,9.50284 2.03177,10.45446 11.86817,9.23207 8.62539,0 17.25081,0 25.87621,0 -5.2105,-3.82275 -10.42102,-7.64551 -15.63154,-11.46828 z m 186.56008,0 c 0.37904,-23.74777 -19.22539,-1.75168 -29.60484,5.76369 -12.50277,6.93669 -1.33035,5.94361 7.5907,5.70459 8.0737,0 16.14738,0 24.22115,0 -0.73565,-3.82275 -1.47136,-7.64551 -2.20701,-11.46828 z M 185.76268,802.75503 c 11.60366,-16.58769 -19.50801,10.60487 -2.4499,2.09545 l 2.4499,-2.09545 z m 176.01123,-0.96302 c -24.40453,-19.15984 4.98164,18.13898 0,0 z M 200.73638,780.46428 c -6.03929,-5.30728 -22.76485,-15.14279 -14.77244,-0.51637 4.39752,1.77814 10.16479,1.58952 14.77244,0.51637 z m 91.52041,0.0288 c -8.80678,-1.24665 -17.84018,-20.07155 -25.95656,-12.365 -3.8856,4.03597 -14.36834,10.35071 -14.35419,13.03962 13.43176,-0.17777 26.93283,0.48777 40.31075,-0.67462 z m 64.71464,-4.72219 c 0.64679,-14.64143 -24.33029,14.15232 -1.76083,4.09608 l 1.32884,-1.68039 0.43199,-2.41569 z M 241.70216,763.44426 c -12.78518,-1.99694 -26.00522,-0.84636 -38.9881,-1.13776 6.75784,4.30351 13.51575,8.60701 20.27363,12.91056 6.31046,-3.81992 13.43671,-6.89007 18.71447,-11.7728 z m 91.38374,3.02948 c 1.68263,-8.43249 -22.19534,-2.53343 -31.02442,-4.19491 6.37275,7.65274 21.15295,18.26702 31.02442,4.19491 z m -6.74796,-23.94207 c -19.08932,-12.68225 -36.72993,-27.97244 -58.03688,-37.694 -18.05403,14.74122 -38.14731,27.58694 -57.3435,41.25062 37.63556,-0.36983 75.35972,0.95599 112.92218,-1.13135 0.93011,0.53704 5.14976,-1.34439 2.4582,-2.42527 z m -100.3729,-30.60754 c 3.05077,-3.42729 18.6432,-10.71602 13.7872,-11.70895 -21.94385,0.48176 -44.27901,-1.37408 -65.884,2.02384 3.00793,12.85063 7.64648,25.38539 11.57166,38.05245 13.58303,-9.38 27.10798,-18.81947 40.52514,-28.36734 z m 140.91447,-5.63752 c -6.83999,-11.59328 -30.24922,-4.13166 -44.56592,-6.07143 -6.53349,0.50033 -19.8089,-0.98215 -22.313,0.70328 18.13403,11.62716 35.45965,24.957 53.9793,35.48315 7.51055,-8.22388 10.68191,-19.91646 12.89962,-30.115 z M 231.53136,684.83295 c -25.52008,-6.89487 -47.81475,-21.17728 -73.35394,-27.15936 5.97641,7.02083 2.97987,23.84953 13.14896,26.26625 20.75475,0.56341 41.51105,1.61403 62.25874,1.89725 l -2.05376,-1.00414 0,0 z m 140.3738,-1.84413 c 7.17654,-7.73255 19.99523,-34.79239 -2.93671,-20.61063 -19.50969,7.56222 -38.6601,15.75658 -57.9676,23.67353 20.30365,-0.96265 40.65522,-1.45249 60.90431,-3.0629 z m 8.31707,-43.63479 c -16.25538,-6.65237 -38.29564,-24.30884 -48.14721,-1.55857 -10.02662,11.34905 -19.65526,22.94246 -28.89344,34.75521 25.694,-11.04099 51.61007,-21.73057 77.04065,-33.19664 z m -162.86265,7.24349 c -8.50098,-19.72103 -31.07464,-23.94945 -49.09446,-10.2498 -14.12843,3.29766 1.55091,6.2243 7.28294,9.27473 19.49291,7.98705 38.54563,16.88166 58.76289,23.4944 -4.46869,-8.03538 -11.14858,-15.13104 -16.95137,-22.51933 z m -47.55592,-28.19009 c 23.47045,-9.21908 -19.69746,-16.30263 -29.71587,-22.27022 -10.21311,-2.56653 7.66579,18.57577 6.59279,25.41916 4.74616,8.77654 16.71283,-1.35009 23.12308,-3.14894 z m 231.93055,-12.69619 c 2.57866,-6.64604 8.25346,-16.33618 -3.73984,-8.65506 -10.63237,5.54727 -28.90119,9.23996 -32.98189,17.4897 12.73559,9.32017 34.6733,16.21421 35.20717,-4.84534 l 1.51456,-3.9893 z m -4.10748,-27.68413 c -10.33117,-15.9403 -40.94728,23.83068 -13.56111,7.95573 4.65517,-2.29682 10.35425,-4.17514 13.56111,-7.95573 z m -230.20616,6.60878 c -3.20686,-16.00092 -39.39757,-8.73467 -13.01791,0.2343 3.56962,1.04763 20.01025,9.21309 13.01791,-0.2343 z"
       id="path3073"
       inkscape:connector-curvature="0" />
    <g
       id="g3010"
       transform="matrix(1.0495715,0,0,1.0495715,-12.925745,-294.19547)"
       inkscape:export-xdpi="5.9000001"
       inkscape:export-ydpi="5.9000001">
      <g
         transform="scale(0.90212631,1.1084922)"
         style="font-size:72.58596039px;font-style:normal;font-weight:normal;line-height:125%;letter-spacing:0px;word-spacing:0px;fill:#000000;fill-opacity:1;stroke:none;font-family:Bitstream Vera Sans"
         id="text2988">
        <path
           d="m 174.21683,936.17255 c 0,-58.79455 -28.68263,-99.03625 -68.78957,-99.03625 -45.940682,0 -70.734142,43.90003 -70.734142,99.03625 0,53.04576 24.307314,98.51365 69.761852,98.51365 45.45454,0 69.76186,-45.46789 69.76186,-98.51365 m -19.93196,-0.26131 c 0,45.7291 -19.932,76.04106 -49.8299,76.04106 -29.897902,0 -49.829892,-30.31196 -49.829892,-75.77975 0,-46.51302 19.688918,-76.30234 50.559112,-76.30234 29.16868,0 49.10068,30.83455 49.10068,76.04103"
           style="font-size:261.30938721px;font-variant:normal;font-stretch:condensed;text-align:start;line-height:125%;writing-mode:lr-tb;text-anchor:start;font-family:TeX Gyre Heros Cn;-inkscape-font-specification:TeX Gyre Heros Cn Condensed"
           id="path3016"
           inkscape:connector-curvature="0" />
        <path
           d="m 314.59733,1029.7213 0,-187.62013 -20.90475,0 0,77.60889 -80.22198,0 0,-77.60889 -20.90475,0 0,187.62013 20.90475,0 0,-87.27732 80.22198,0 0,87.27732 20.90475,0"
           style="font-size:261.30938721px;font-variant:normal;font-stretch:condensed;text-align:start;line-height:125%;writing-mode:lr-tb;text-anchor:start;font-family:TeX Gyre Heros Cn;-inkscape-font-specification:TeX Gyre Heros Cn Condensed"
           id="path3018"
           inkscape:connector-curvature="0" />
        <path
           d="m 484.93455,1029.7213 0,-187.62013 -29.52796,0 -43.89997,159.39873 -44.16129,-159.39873 -29.78927,0 0,187.62013 20.12082,0 0,-122.8154 0,-36.06069 43.37736,158.87609 20.38213,0 43.89998,-159.1374 0,48.34223 0,110.79517 19.5982,0"
           style="font-size:261.30938721px;font-variant:normal;font-stretch:condensed;text-align:start;line-height:125%;writing-mode:lr-tb;text-anchor:start;font-family:TeX Gyre Heros Cn;-inkscape-font-specification:TeX Gyre Heros Cn Condensed"
           id="path3020"
           inkscape:connector-curvature="0" />
        <path
           d="m 529.66373,1029.7213 0,-187.62013 -20.64344,0 0,187.62013 20.64344,0"
           style="font-size:261.30938721px;font-variant:normal;font-stretch:condensed;text-align:start;line-height:125%;writing-mode:lr-tb;text-anchor:start;font-family:TeX Gyre Heros Cn;-inkscape-font-specification:TeX Gyre Heros Cn Condensed"
           id="path3022"
           inkscape:connector-curvature="0" />
      </g>
      <path
         sodipodi:nodetypes="ccccccccccccc"
         inkscape:connector-curvature="0"
         id="path3013-7"
         style="font-size:188.01930237px;font-style:italic;font-variant:normal;font-weight:bold;font-stretch:normal;text-align:start;line-height:125%;letter-spacing:0px;word-spacing:0px;writing-mode:lr-tb;text-anchor:start;fill:#d40000;fill-opacity:1;stroke:none;font-family:VL Gothic;-inkscape-font-specification:VL Gothic Bold Italic"
         d="m 92.855454,1018.5214 44.066596,-50.48896 38.1157,-44.7227 -45.70762,31.81578 -49.932675,37.13336 -69.491127,52.28852 92.348132,0 -24.923682,31.2523 -65.578689,75.8763 49.751344,-37.774 42.839337,-36.6362 27.8062,-23.3504 41.57252,-35.394" />
    </g>
  </g>
</svg>
